{"title":"A Dangerous Method 2011 CaM XviD - ILLUMINATI","uid":6810335,"size":1141692955,"categoryP":"video","categoryS":"movies","magnet":"?xt=urn:btih:834cf0039da7ccc49bfede7d645cb0debe0cc893&amp;dn=A+Dangerous+Method+2011+CaM+XviD+-+ILLUMINATI&amp;tr=udp%3A%2F%2Ftracker.openbittorrent.com%3A80&amp;tr=udp%3A%2F%2Fopen.demonii.com%3A1337&amp;tr=udp%3A%2F%2Ftracker.coppersurfer.tk%3A6969&amp;tr=udp%3A%2F%2Fexodus.desync.com%3A6969","seeders":0,"leechers":0,"uploader":"crazy-torrent","files":2,"time":1321017654,"description":" &lt;a href=&quot; http://www.scenespeeds.com/&quot; rel=&quot;nofollow&quot; target=&quot;_NEW&quot;&gt; http://www.scenespeeds.com/&lt;/a&gt;\n\n  |  | |  | |  | \n  |/\\| |/\\| |/\\|,\n  ~  ~ ~  ~ ~  ~~\n                  \n   _, __,  _, ___,\n  / ` |_) /_\\ ` / \n  \\ , | \\ | |  /  \n   ~  ~ ~ ~ ~ ~~~ \n                  \n , _    ___  _, __,\n \\ |     |  / \\ |_)\n  \\| ~~  |  \\ / | \\\n   )     ~   ~  ~ ~\n  ~'               \n  __, __, _, _ ___ \n  |_) |_  |\\ |  |  \n  | \\ |   | \\|  | ,\n  ~ ~ ~~~ ~  ~  ~ ~\n                   \n     _,  _, _, _\n    / ` / \\ |\\/|\n    \\ , \\ / |  |\n\n &lt;a href=&quot;\nhttp://www.imdb.com/title/tt1571222/&quot; rel=&quot;nofollow&quot; target=&quot;_NEW&quot;&gt;\nhttp://www.imdb.com/title/tt1571222/&lt;/a&gt;\n\nVideo - TNZ (720p Files) - Many Thanks Guys\nAudio - EVOLUTiON - Many Thanks Guys (holla)\nInfo:\nVideo\nID : 0\nFormat : MPEG-4 Visual\nFormat profile : Advanced Simple@L5\nFormat settings, BVOP : 2\nFormat settings, QPel : No\nFormat settings, GMC : No warppoints\nFormat settings, Matrix : Default (H.263)\nCodec ID : XVID\nCodec ID/Hint : XviD\nDuration : 1h 33mn\nBit rate : 1 498 Kbps\nWidth : 704 pixels\nHeight : 368 pixels\nDisplay aspect ratio : 1.913\nFrame rate : 25.000 fps\nColor space : YUV\nChroma subsampling : 4:2:0\nBit depth : 8 bits\nScan type : Progressive\nCompression mode : Lossy\nBits/(Pixel*Frame) : 0.231\nStream size : 1 000 MiB (92%)\nWriting library : XviD 64\nAudio\nID : 1\nFormat : MPEG Audio\nFormat version : Version 1\nFormat profile : Layer 3\nMode : Joint stereo\nMode extension : MS Stereo\nCodec ID : 55\nCodec ID/Hint : MP3\nDuration : 1h 33mn\nBit rate mode : Variable\nBit rate : 120 Kbps\nChannel(s) : 2 channels\nSampling rate : 48.0 KHz\nCompression mode : Lossy\nStream size : 80.0 MiB (7%)\nAlignment : Aligned on interleaves\nInterleave, duration : 24 ms (0.60 video frame)\n\n\nA look at how the intense relationship between\nCarl Jung and Sigmund Freud gives birth to\npsychoanalysis. ","torrent":{"xt":"urn:btih:834cf0039da7ccc49bfede7d645cb0debe0cc893","amp;dn":"A+Dangerous+Method+2011+CaM+XviD+-+ILLUMINATI","amp;tr":["udp%3A%2F%2Ftracker.openbittorrent.com%3A80","udp%3A%2F%2Fopen.demonii.com%3A1337","udp%3A%2F%2Ftracker.coppersurfer.tk%3A6969","udp%3A%2F%2Fexodus.desync.com%3A6969"],"infoHash":"834cf0039da7ccc49bfede7d645cb0debe0cc893","infoHashBuffer":{"type":"Buffer","data":[131,76,240,3,157,167,204,196,155,254,222,125,100,92,176,222,190,12,200,147]},"announce":[],"urlList":[]}}